# xmcd
#
# Track frame offsets:
#	150
#	22155
#	76138
#	104406
#	149407
#	172630
#	204852
#	247385
#	266723
#
# Disc length: 4230 seconds
#
# Revision: 3
# Processed by: cddbd v1.5.2PL0 Copyright (c) Steve Scherf et al.
# Submitted via: audiograbber 1.83.01
#
DISCID=79108409
DTITLE=Gregory Porter - Live In Berlin [CD 2)
DYEAR=2016
DGENRE=Jazz
TTITLE0=Bass Solo - Papa Was A Rolling Stone [live]
TTITLE1=Musical Genocide [live]
TTITLE2=Don't Be A Fool [live]
TTITLE3=Work Song - Drum Solo [live]
TTITLE4=In Fashion [live]
TTITLE5=Be Good (Lion's Song) [live]
TTITLE6=1960 What? [live]
TTITLE7=Water Under Bridges [live]
TTITLE8=Free - Thank You (Falettinme Be Mice Elf Agin) [live]
EXTD=
EXTT0=
EXTT1=
EXTT2=
EXTT3=
EXTT4=
EXTT5=
EXTT6=
EXTT7=
EXTT8=
PLAYORDER=
